<?xml version="1.0" encoding="UTF-8"?>
<svg width="276px" height="489px" viewBox="0 0 276 489" version="1.1" xmlns="http://www.w3.org/2000/svg" xmlns:xlink="http://www.w3.org/1999/xlink">
    <title>编组</title>
    <defs>
        <path d="M-30.5,54.5 L215.5,54.5 C228.754834,54.5 239.5,65.245166 239.5,78.5 L239.5,215.5 C239.5,228.754834 228.754834,239.5 215.5,239.5 L-30.5,239.5 C-43.754834,239.5 -54.5,228.754834 -54.5,215.5 L-54.5,78.5 C-54.5,65.245166 -43.754834,54.5 -30.5,54.5 Z" id="path-1"></path>
        <linearGradient x1="-4.38051471%" y1="45.7979947%" x2="73.4154412%" y2="69.7509062%" id="linearGradient-3">
            <stop stop-color="#FF5BD5" offset="0%"></stop>
            <stop stop-color="#9556FF" offset="100%"></stop>
        </linearGradient>
        <path d="M-35.1078067,59.1078067 L235.107807,59.1078067 C248.362641,59.1078067 259.107807,69.8529727 259.107807,83.1078067 L259.107807,235.107807 C259.107807,248.362641 248.362641,259.107807 235.107807,259.107807 L-35.1078067,259.107807 C-48.3626407,259.107807 -59.1078067,248.362641 -59.1078067,235.107807 L-59.1078067,83.1078067 C-59.1078067,69.8529727 -48.3626407,59.1078067 -35.1078067,59.1078067 Z" id="path-4"></path>
    </defs>
    <g id="页面-1" stroke="none" stroke-width="1" fill="none" fill-rule="evenodd">
        <g id="Astro-Card" transform="translate(-42.000000, -136.000000)">
            <g id="编组" transform="translate(42.227287, 136.068142)">
                <g id="Astro-Card备份-5" transform="translate(137.272713, 165.931858) rotate(-15.000000) translate(-137.272713, -165.931858) translate(44.772713, 18.931858)">
                    <mask id="mask-2" fill="white">
                        <use xlink:href="#path-1" transform="translate(92.500000, 147.000000) rotate(-270.000000) translate(-92.500000, -147.000000) "></use>
                    </mask>
                    <use id="蒙版" fill="#464646" transform="translate(92.500000, 147.000000) rotate(-270.000000) translate(-92.500000, -147.000000) " xlink:href="#path-1"></use>
                    <g id="Astro-Card备份-4" mask="url(#mask-2)" fill="#252525" fill-rule="nonzero">
                        <g transform="translate(-5.193180, 36.828911)">
                            <path d="M32.725404,-5.60773565e-13 L50.7944251,50.3738318 L36.399,50.373 L25.0123285,14.3441939 L13.625,50.373 L-4.35716063e-13,50.3738318 L18.0690211,-5.60773565e-13 L32.725404,-5.60773565e-13 Z" id="形状"></path>
                            <path d="M68.5201725,51.4018692 C65.4824583,51.4018692 62.6101035,51.1025671 59.9031082,50.5039631 C57.1961129,49.905359 54.9606982,49.2069877 53.1968641,48.4088489 L53.1968641,38.565138 L54.2625139,38.565138 C54.8749562,38.9863778 55.5731405,39.4519588 56.3570668,39.9618807 C57.140993,40.4718027 58.2311405,41.0038952 59.6275091,41.5581582 C60.8278962,42.0680801 62.1813938,42.5059479 63.6880021,42.8717615 C65.1946104,43.2375751 66.8298315,43.4204819 68.5936656,43.4204819 C70.406495,43.4204819 72.0049696,43.1655209 73.3890894,42.6555989 C74.7732092,42.145677 75.4652691,41.336453 75.4652691,40.227927 C75.4652691,39.3632767 75.146799,38.7092463 74.509859,38.2658359 C73.8729189,37.8224255 72.6357853,37.4011856 70.7984581,37.0021163 C69.8185503,36.7804111 68.5814167,36.542078 67.0870573,36.287117 C65.5926979,36.032156 64.2698224,35.7383966 63.1184307,35.4058388 C59.8847349,34.4968475 57.4533387,33.1499884 55.8242419,31.3652615 C54.1951452,29.5805346 53.3805968,27.2360021 53.3805968,24.331664 C53.3805968,22.668875 53.8031821,21.1003107 54.6483526,19.6259711 C55.493523,18.1516315 56.7367811,16.8380281 58.3781267,15.6851611 C60.0194722,14.5544646 62.0466565,13.6565585 64.4596795,12.9914429 C66.8727025,12.3263273 69.5980711,11.9937695 72.6357853,11.9937695 C75.5265133,11.9937695 78.1845132,12.2542731 80.6097851,12.7752803 C83.0350569,13.2962875 85.0806145,13.9226047 86.7464577,14.6542319 L86.7464577,24.0988735 L85.7175545,24.0988735 C85.276596,23.7884862 84.5784117,23.372789 83.6230016,22.8517817 C82.6675915,22.3307745 81.7366791,21.8818215 80.8302643,21.5049226 C79.7523657,21.0615122 78.5458543,20.6956987 77.2107299,20.4074819 C75.8756055,20.1192651 74.509859,19.9751567 73.1134903,19.9751567 C71.2516655,19.9751567 69.6776886,20.2633735 68.3915596,20.839807 C67.1054306,21.4162406 66.4623661,22.1811235 66.4623661,23.1344559 C66.4623661,23.9769356 66.7808361,24.6420513 67.4177762,25.1298027 C68.0547163,25.6175541 69.438836,26.0942203 71.5701355,26.5598013 C72.6725318,26.803677 73.9402875,27.0420101 75.3734027,27.2748005 C76.8065179,27.507591 78.1845132,27.8235209 79.5073888,28.2225903 C82.4716099,29.0872406 84.7192734,30.3565028 86.2503794,32.0303771 C87.7814854,33.7042514 88.5470383,35.926846 88.5470383,38.6981611 C88.5470383,40.4496322 88.093831,42.1179638 87.1874162,43.703156 C86.2810015,45.2883482 84.9948725,46.6241221 83.3290292,47.7104775 C81.5651952,48.8855151 79.4890155,49.7945064 77.1004902,50.4374515 C74.7119649,51.0803966 71.851859,51.4018692 68.5201725,51.4018692 Z" id="路径"></path>
                            <path d="M110.011391,50.3738318 C104.822758,50.3738318 101.046452,49.3933238 98.6824717,47.4323078 C96.3184917,45.4712918 95.1365018,42.2623566 95.1365018,37.8055021 L95.1365018,20.2566375 L90.2630662,20.2566375 L90.2630662,12.1005937 L95.1365018,12.1005937 L95.1365018,1.37071651 L107.865624,1.37071651 L107.865624,12.1005937 L120.121951,12.1005937 L120.121951,20.2566375 L107.865624,20.2566375 L107.865624,33.5603482 C107.865624,34.8751202 107.877747,36.0227603 107.901993,37.0032683 C107.926239,37.9837763 108.120207,38.864005 108.483896,39.6439546 C108.823339,40.4239041 109.423427,41.0422927 110.284158,41.4991202 C111.144889,41.9559478 112.399617,42.1843616 114.048341,42.1843616 C114.727228,42.1843616 115.618266,42.050656 116.721457,41.7832447 C117.824648,41.5158335 118.594456,41.2707065 119.030884,41.0478637 L120.121951,41.0478637 L120.121951,49.3041867 C118.739932,49.6384508 117.273052,49.900291 115.721312,50.0897073 C114.169571,50.2791236 112.266264,50.3738318 110.011391,50.3738318 Z" id="路径"></path>
                            <path d="M152.726481,23.4022174 L151.670464,23.4022174 C151.184939,23.2432938 150.480927,23.1241011 149.558429,23.0446392 C148.635932,22.9651774 147.616329,22.9254465 146.499621,22.9254465 C145.164427,22.9254465 143.762473,23.1070735 142.29376,23.4703276 C140.825046,23.8335817 139.398816,24.2649459 138.015069,24.7644202 L138.015069,50.3738318 L125.270035,50.3738318 L125.270035,12.1299897 L138.015069,12.1299897 L138.015069,17.6128558 C138.5977,17.1133814 139.404885,16.4833627 140.436626,15.7227995 C141.468367,14.9622363 142.409072,14.3549209 143.258741,13.9008533 C144.181239,13.3786756 145.255463,12.9302839 146.481414,12.5556781 C147.707365,12.1810723 148.866556,11.9937695 149.958988,11.9937695 C150.371684,11.9937695 150.832933,12.0051212 151.342734,12.0278245 C151.852536,12.0505279 152.313784,12.084583 152.726481,12.1299897 L152.726481,23.4022174 Z" id="路径"></path>
                            <path d="M197,31.7143357 C197,37.814388 195.117399,42.6206567 191.352197,46.1331417 C187.586995,49.6456267 182.262279,51.4018692 175.378049,51.4018692 C168.543524,51.4018692 163.231234,49.6456267 159.44118,46.1331417 C155.651125,42.6206567 153.756098,37.814388 153.756098,31.7143357 C153.756098,25.5482178 155.651125,20.7199273 159.44118,17.2294642 C163.231234,13.739001 168.543524,11.9937695 175.378049,11.9937695 C182.237426,11.9937695 187.555929,13.750012 191.333558,17.262497 C195.111186,20.774982 197,25.5922615 197,31.7143357 Z M183.616758,31.7804013 C183.616758,29.5782163 183.411722,27.7448973 183.001651,26.2804443 C182.591579,24.8159913 182.026177,23.6433279 181.305446,22.7624539 C180.535008,21.8375362 179.66516,21.1933971 178.6959,20.8300366 C177.72664,20.4666761 176.62069,20.2849958 175.378049,20.2849958 C174.209966,20.2849958 173.153722,20.4446542 172.209315,20.763971 C171.264907,21.0832879 170.395059,21.6943942 169.599769,22.59729 C168.854184,23.4561421 168.257717,24.6343111 167.810366,26.1317969 C167.363015,27.6292826 167.13934,29.5121508 167.13934,31.7804013 C167.13934,34.0486517 167.350589,35.8819707 167.773087,37.2803582 C168.195585,38.6787456 168.742347,39.7963545 169.413373,40.6331848 C170.109251,41.4920369 170.9791,42.1196596 172.022918,42.5160529 C173.066737,42.9124462 174.222393,43.1106428 175.489886,43.1106428 C176.533705,43.1106428 177.596163,42.9124462 178.67726,42.5160529 C179.758358,42.1196596 180.621993,41.5250697 181.268167,40.7322831 C182.038604,39.7853435 182.622645,38.6457128 183.02029,37.3133909 C183.417935,35.981069 183.616758,34.1367391 183.616758,31.7804013 Z" id="形状"></path>
                            <path d="M26.1551017,110 C18.1423362,110 11.7799612,107.757191 7.06797672,103.271572 C2.35599224,98.7859529 -1.10362604e-12,92.4783975 -1.10362604e-12,84.3489056 C-1.10362604e-12,76.5073794 2.36197192,70.255202 7.08591575,65.5923735 C11.8098596,60.9295451 18.1782142,58.5981308 26.1909797,58.5981308 C28.3197443,58.5981308 30.2332405,58.7088869 31.9314684,58.9303989 C33.6296964,59.1519109 35.2561682,59.4620278 36.8108838,59.8607495 C38.0307377,60.1930175 39.3582257,60.6471172 40.7933479,61.2230485 C42.2284701,61.7989798 43.3885272,62.2973819 44.2735192,62.7182548 L44.2735192,74.513771 L42.9101531,74.513771 C42.2643481,73.9821421 41.4511122,73.345295 40.4704454,72.6032296 C39.4897786,71.8611643 38.3775589,71.1357124 37.1337863,70.4268738 C35.8900138,69.7180353 34.520668,69.114415 33.0257491,68.6160129 C31.5308302,68.1176108 29.9701348,67.8684098 28.343663,67.8684098 C26.4062481,67.8684098 24.6302844,68.1508376 23.0157719,68.7156933 C21.4012595,69.280549 19.8644828,70.2607398 18.4054419,71.6562657 C17.0659946,72.9188843 15.9717139,74.624527 15.1225999,76.7731938 C14.273486,78.9218606 13.848929,81.4581735 13.848929,84.3821324 C13.848929,87.4611498 14.291425,90.0473029 15.176417,92.1405917 C16.061409,94.2338805 17.2214661,95.9229098 18.6565883,97.2076796 C20.0438731,98.4481471 21.5926091,99.3452708 23.3027964,99.8990509 C25.0129836,100.452831 26.7171912,100.729721 28.4154191,100.729721 C30.1854031,100.729721 31.8716717,100.458369 33.4742248,99.9156643 C35.0767779,99.3729598 36.4281846,98.7693395 37.5284449,98.1048034 C38.7243801,97.4181161 39.776803,96.7203531 40.6857137,96.0115146 C41.5946244,95.3026761 42.3839416,94.6713667 43.0536653,94.1175866 L44.2735192,94.1175866 L44.2735192,105.746969 C43.2928523,106.167842 42.156714,106.64963 40.865104,107.192335 C39.573494,107.735039 38.246006,108.194677 36.88264,108.571247 C35.2083307,109.036423 33.6416557,109.390842 32.1826148,109.634505 C30.7235739,109.878168 28.7144029,110 26.1551017,110 Z" id="路径"></path>
                            <path d="M75.5920892,99.258383 L75.5920892,91.4765304 C73.3832952,91.676065 71.5964056,91.8478866 70.2314205,91.991995 C68.8664355,92.1361033 67.5262683,92.4187775 66.2109191,92.8400174 C65.0692952,93.1947457 64.1820549,93.7323808 63.5491982,94.4529227 C62.9163415,95.1734646 62.5999131,96.1323396 62.5999131,97.3295477 C62.5999131,99.0810188 63.1272937,100.28377 64.1820549,100.9378 C65.2368161,101.59183 66.79414,101.918845 68.8540265,101.918845 C69.9956504,101.918845 71.1620922,101.686055 72.3533519,101.220474 C73.5446116,100.754893 74.6241907,100.100863 75.5920892,99.258383 Z M75.5920892,105.044889 C74.6986444,105.710004 73.8982668,106.308608 73.1909563,106.840701 C72.4836459,107.372793 71.5343608,107.904886 70.3431011,108.436978 C69.1766594,108.9469 68.04124,109.334884 66.936843,109.600931 C65.832446,109.866977 64.287531,110 62.3020982,110 C58.6042296,110 55.5330132,108.891474 53.088449,106.674422 C50.6438849,104.45737 49.4216028,101.663884 49.4216028,98.2939653 C49.4216028,95.5226503 50.0420505,93.2834278 51.2829461,91.5762977 C52.5238416,89.8691676 54.3107311,88.5167659 56.6436147,87.5190925 C59.0013162,86.4992486 61.818149,85.7897919 65.0941131,85.3907226 C68.3700773,84.9916532 71.8942205,84.6812659 75.6665429,84.4595607 L75.6665429,84.260026 C75.6665429,82.1981676 74.8165295,80.7737117 73.1165026,79.9866583 C71.4164758,79.1996048 68.8664355,78.8060781 65.4663818,78.8060781 C63.9276713,78.8060781 62.1283728,79.0554964 60.0684863,79.5543331 C58.0085997,80.0531698 55.998349,80.6905723 54.0377341,81.4665405 L52.9209281,81.4665405 L52.9209281,72.454224 C54.2114595,72.1216662 56.2961639,71.7281395 59.1750415,71.2736438 C62.0539191,70.8191481 64.9576146,70.5919003 67.886128,70.5919003 C75.083322,70.5919003 80.3261056,71.6616279 83.6144787,73.8010831 C86.9028518,75.9405383 88.5470383,79.2051474 88.5470383,83.5949104 L88.5470383,109.002327 L75.5920892,109.002327 L75.5920892,105.044889 Z" id="形状"></path>
                            <path d="M124.240418,82.0003483 L123.184401,82.0003483 C122.698876,81.8414246 121.994864,81.7222319 121.072367,81.6427701 C120.149869,81.5633082 119.130266,81.5235773 118.013558,81.5235773 C116.678364,81.5235773 115.27641,81.7052044 113.807697,82.0684584 C112.338983,82.4317125 110.912753,82.8630767 109.529007,83.362551 L109.529007,108.971963 L96.7839721,108.971963 L96.7839721,70.7281206 L109.529007,70.7281206 L109.529007,76.2109866 C110.111637,75.7115123 110.918822,75.0814935 111.950563,74.3209303 C112.982304,73.5603671 113.923009,72.9530517 114.772678,72.4989842 C115.695176,71.9768064 116.7694,71.5284147 117.995351,71.1538089 C119.221302,70.7792032 120.380493,70.5919003 121.472925,70.5919003 C121.885621,70.5919003 122.34687,70.603252 122.856672,70.6259554 C123.366473,70.6486588 123.827722,70.6827138 124.240418,70.7281206 L124.240418,82.0003483 Z" id="路径"></path>
                            <path d="M166.797909,108.969156 L153.923804,108.969156 L153.923804,105.078549 C153.090052,105.699273 152.139821,106.364334 151.073109,107.073732 C150.006397,107.78313 149.068427,108.315179 148.259197,108.669878 C147.229269,109.113252 146.211602,109.445783 145.206195,109.66747 C144.200789,109.889157 142.999206,110 141.601446,110 C136.893201,110 133.165841,108.237589 130.419365,104.712766 C127.672889,101.187943 126.299652,96.4770942 126.299652,90.5802205 C126.299652,87.3214219 126.765572,84.4949129 127.697412,82.1006935 C128.629252,79.7064741 129.916662,77.6226165 131.559643,75.8491207 C133.055492,74.2308057 134.870128,72.9505634 137.003551,72.0083937 C139.136974,71.0662241 141.393008,70.5951392 143.771652,70.5951392 C145.929597,70.5951392 147.701319,70.8001997 149.086818,71.2103206 C150.472317,71.6204415 152.084646,72.2577916 153.923804,73.1223708 L153.923804,57.2274143 L166.797909,57.2274143 L166.797909,108.969156 Z M153.923804,98.660711 L153.923804,80.338282 C153.286229,80.050089 152.452477,79.8117755 151.422549,79.6233415 C150.392621,79.4349076 149.509825,79.3406906 148.774162,79.3406906 C145.684376,79.3406906 143.360907,80.3161133 141.803753,82.2669588 C140.246599,84.2178042 139.468022,86.944554 139.468022,90.4472083 C139.468022,94.1272122 140.087206,96.787456 141.325572,98.4279396 C142.563938,100.068423 144.56862,100.888665 147.339618,100.888665 C148.467635,100.888665 149.607913,100.689147 150.760452,100.29011 C151.912991,99.8910737 152.967442,99.3479406 153.923804,98.660711 Z" id="形状"></path>
                        </g>
                    </g>
                </g>
                <g id="Astro-Card备份-4" transform="translate(137.772713, 309.039665) rotate(-345.000000) translate(-137.772713, -309.039665) translate(37.772713, 149.931858)">
                    <mask id="mask-5" fill="white">
                        <use xlink:href="#path-4" transform="translate(100.000000, 159.107807) rotate(-270.000000) translate(-100.000000, -159.107807) "></use>
                    </mask>
                    <use id="蒙版" fill="url(#linearGradient-3)" transform="translate(100.000000, 159.107807) rotate(-270.000000) translate(-100.000000, -159.107807) " xlink:href="#path-4"></use>
                    <g mask="url(#mask-5)" fill="#FFFFFF" fill-rule="nonzero">
                        <g transform="translate(-5.947955, 39.587361)">
                            <path d="M35.4469117,0 L55.0185874,54.6468401 L39.425,54.646 L27.092402,15.5609538 L14.759,54.646 L0,54.6468401 L19.5716757,0 L35.4469117,0 Z" id="形状"></path>
                            <path d="M74.2184421,55.7620818 C70.9281057,55.7620818 67.8168804,55.4373912 64.8847661,54.78801 C61.9526518,54.1386288 59.5313357,53.3810174 57.6208178,52.5151758 L57.6208178,41.8364626 L58.7750891,41.8364626 C59.4384633,42.2934346 60.19471,42.7985088 61.0438291,43.3516854 C61.8929481,43.904862 63.0737543,44.4820897 64.5862477,45.0833686 C65.8864612,45.6365452 67.3525184,46.1115555 68.9844191,46.5083996 C70.6163198,46.9052437 72.3875291,47.1036657 74.298047,47.1036657 C76.2616348,47.1036657 77.9930417,46.8270774 79.4922675,46.2739008 C80.9914934,45.7207243 81.7411063,44.8428571 81.7411063,43.6402993 C81.7411063,42.7023042 81.3961517,41.9927951 80.7062424,41.511772 C80.0163332,41.0307489 78.6763172,40.5737769 76.6861943,40.1408561 C75.6247955,39.9003446 74.2847795,39.6417946 72.6661463,39.3652063 C71.0475131,39.0886181 69.6146246,38.7699402 68.367481,38.4091729 C64.8648649,37.4230755 62.231269,35.9619678 60.4666935,34.0258498 C58.7021179,32.0897317 57.8198301,29.546322 57.8198301,26.3956206 C57.8198301,24.5917839 58.2775584,22.8901646 59.1930149,21.2907628 C60.1084714,19.6913609 61.4551211,18.26633 63.2329642,17.0156699 C65.0108072,15.7890609 67.206576,14.8149891 69.8202707,14.0934544 C72.4339653,13.3719198 75.3859808,13.0111524 78.6763172,13.0111524 C81.8074437,13.0111524 84.686488,13.2937535 87.3134501,13.8589557 C89.9404122,14.4241578 92.1560823,15.103603 93.9604603,15.8972911 L93.9604603,26.1430835 L92.8459915,26.1430835 C92.3683621,25.8063673 91.6121154,25.3554081 90.5772515,24.790206 C89.5423877,24.2250038 88.5340588,23.7379679 87.5522649,23.3290982 C86.3847262,22.8480751 85.0778789,22.4512311 83.6317229,22.138566 C82.185567,21.825901 80.7062424,21.6695685 79.1937491,21.6695685 C77.1770913,21.6695685 75.4722194,21.9822335 74.0791335,22.6075636 C72.6860475,23.2328936 71.9895045,24.0626585 71.9895045,25.0968582 C71.9895045,26.0108021 72.3344591,26.7323368 73.0243684,27.2614622 C73.7142776,27.7905876 75.2135035,28.3076875 77.5220459,28.8127618 C78.7161196,29.0773245 80.0893043,29.3358744 81.6416001,29.5884115 C83.1938959,29.8409487 84.686488,30.1836776 86.1193765,30.6165984 C89.3301079,31.5545935 91.7646915,32.9315222 93.4231272,34.7473844 C95.0815628,36.5632467 95.9107807,38.9743751 95.9107807,41.9807695 C95.9107807,43.8808108 95.4198837,45.6906603 94.4380898,47.4103179 C93.4562959,49.1299756 92.0632099,50.5790577 90.2588319,51.7575643 C88.348314,53.0322756 86.0994752,54.018373 83.5123156,54.7158565 C80.9251559,55.41334 77.8271981,55.7620818 74.2184421,55.7620818 Z" id="路径"></path>
                            <path d="M119.16015,54.6468401 C113.540021,54.6468401 109.449669,53.5831596 106.889096,51.4557986 C104.328523,49.3284376 103.048237,45.8473013 103.048237,41.0123899 L103.048237,21.9749261 L97.7695167,21.9749261 L97.7695167,13.1270381 L103.048237,13.1270381 L103.048237,1.48698885 L116.835938,1.48698885 L116.835938,13.1270381 L130.111524,13.1270381 L130.111524,21.9749261 L116.835938,21.9749261 L116.835938,36.4071367 C116.835938,37.8334356 116.849069,39.0784253 116.875331,40.1421058 C116.901593,41.2057863 117.111692,42.1606814 117.505626,43.0067909 C117.873298,43.8529004 118.52329,44.5237443 119.455601,45.0193227 C120.387912,45.5149012 121.746985,45.7626904 123.532821,45.7626904 C124.268165,45.7626904 125.233304,45.617643 126.428238,45.3275483 C127.623172,45.0374537 128.457,44.7715335 128.929721,44.529788 L130.111524,44.529788 L130.111524,53.4864614 C128.614574,53.8490798 127.025705,54.1331308 125.344919,54.3386145 C123.664133,54.5440983 121.602543,54.6468401 119.16015,54.6468401 Z" id="路径"></path>
                            <path d="M165.427509,25.3873329 L164.283672,25.3873329 C163.757769,25.2149284 162.995211,25.085625 161.995997,24.9994228 C160.996782,24.9132205 159.892387,24.8701194 158.682812,24.8701194 C157.23658,24.8701194 155.718037,25.0671531 154.127183,25.4612205 C152.536328,25.855288 150.99149,26.3232431 149.492669,26.8650858 L149.492669,54.6468401 L135.687732,54.6468401 L135.687732,13.1589277 L149.492669,13.1589277 L149.492669,19.1068831 C150.123751,18.5650404 150.998064,17.8815797 152.115606,17.056501 C153.233149,16.2314223 154.252085,15.5725908 155.172414,15.0800065 C156.171628,14.5135345 157.335187,14.0271075 158.663091,13.6207255 C159.990994,13.2143434 161.246586,13.0111524 162.429866,13.0111524 C162.876883,13.0111524 163.37649,13.023467 163.928688,13.0480962 C164.480885,13.0727255 164.980492,13.1096693 165.427509,13.1589277 L165.427509,25.3873329 Z" id="路径"></path>
                            <path d="M213.3829,34.4045345 C213.3829,41.0220296 211.343738,46.2359946 207.265415,50.0464295 C203.187091,53.8568643 197.419562,55.7620818 189.962825,55.7620818 C182.559928,55.7620818 176.805858,53.8568643 172.700615,50.0464295 C168.595372,46.2359946 166.542751,41.0220296 166.542751,34.4045345 C166.542751,27.7153698 168.595372,22.477515 172.700615,18.6909699 C176.805858,14.9044249 182.559928,13.0111524 189.962825,13.0111524 C197.392642,13.0111524 203.153442,14.9163699 207.245225,18.7268048 C211.337008,22.5372396 213.3829,27.7631496 213.3829,34.4045345 Z M198.886681,34.4762041 C198.886681,32.0872167 198.664594,30.0983847 198.22042,28.5097081 C197.776247,26.9210315 197.163825,25.6488957 196.383156,24.6933008 C195.548648,23.6899261 194.606461,22.9911472 193.556595,22.5969643 C192.50673,22.2027814 191.308807,22.0056899 189.962825,22.0056899 C188.697603,22.0056899 187.553519,22.1788915 186.530573,22.5252947 C185.507627,22.8716979 184.56544,23.5346419 183.704012,24.5141267 C182.896424,25.4458318 182.250353,26.72394 181.765799,28.3484515 C181.281246,29.9729629 181.038969,32.0155471 181.038969,34.4762041 C181.038969,36.9368611 181.267786,38.9256931 181.72542,40.4427001 C182.183053,41.9597071 182.775285,43.1721182 183.502115,44.0799334 C184.255865,45.0116385 185.198052,45.6924999 186.328676,46.1225177 C187.4593,46.5525354 188.711063,46.7675443 190.083964,46.7675443 C191.214588,46.7675443 192.365402,46.5525354 193.536406,46.1225177 C194.707409,45.6924999 195.642866,45.0474733 196.342777,44.1874379 C197.177285,43.1601733 197.809896,41.9238723 198.24061,40.4785349 C198.671324,39.0331976 198.886681,37.0324206 198.886681,34.4762041 Z" id="形状"></path>
                            <path d="M28.3302103,119.330855 C19.6510878,119.330855 12.7596055,116.897797 7.65576329,112.031681 C2.5519211,107.165566 0,100.322966 0,91.5038821 C0,82.9971909 2.55839805,76.2146666 7.67519416,71.1563092 C12.7919903,66.0979519 19.6899496,63.5687732 28.3690721,63.5687732 C30.6748688,63.5687732 32.7474951,63.6889242 34.5869509,63.9292263 C36.4264067,64.1695283 38.188139,64.5059511 39.8721479,64.9384947 C41.1934471,65.2989477 42.6313316,65.7915668 44.1858013,66.4163521 C45.740271,67.0411373 46.9968007,67.5818168 47.9553903,68.0383906 L47.9553903,80.8344728 L46.4786441,80.8344728 C45.7791328,80.2577479 44.8982666,79.5668797 43.8360456,78.7618679 C42.7738247,77.9568562 41.5691106,77.1698671 40.2219036,76.4009007 C38.8746965,75.6319342 37.3914733,74.9771112 35.772234,74.4364317 C34.1529948,73.8957522 32.462509,73.6254124 30.7007766,73.6254124 C28.6022425,73.6254124 26.6785863,73.9317975 24.9298079,74.5445676 C23.1810294,75.1573377 21.5164515,76.2206741 19.9360739,77.7345768 C18.4852356,79.1042983 17.2999524,80.9546238 16.3802245,83.2855533 C15.4604966,85.6164828 15.0006326,88.3679408 15.0006326,91.5399274 C15.0006326,94.8801253 15.4799275,97.6856513 16.4385171,99.9565053 C17.3971068,102.227359 18.6536364,104.059662 20.2081061,105.453414 C21.7107602,106.799105 23.3882921,107.772328 25.2407018,108.373083 C27.0931115,108.973838 28.9390443,109.274216 30.7785001,109.274216 C32.6956794,109.274216 34.5221813,108.979846 36.2580058,108.391106 C37.9938303,107.802366 39.4576226,107.147543 40.6493827,106.426637 C41.9447742,105.681701 43.0847186,104.924749 44.0692161,104.155783 C45.0537136,103.386817 45.9086719,102.701956 46.6340911,102.101201 L47.9553903,102.101201 L47.9553903,114.717056 C46.8931694,115.17363 45.6625475,115.696287 44.2635248,116.285027 C42.8645021,116.873767 41.4266176,117.372394 39.9498714,117.780907 C38.1363234,118.285541 36.4393606,118.670024 34.8589831,118.934357 C33.2786056,119.198689 31.102348,119.330855 28.3302103,119.330855 Z" id="路径"></path>
                            <path d="M81.878473,107.67807 L81.878473,99.2361144 C79.4859914,99.4525748 77.5505007,99.6389712 76.0720008,99.7953038 C74.593501,99.9516363 73.1418829,100.258288 71.7171467,100.71526 C70.4805832,101.100079 69.5195583,101.683319 68.834072,102.464982 C68.1485857,103.246645 67.8058426,104.286857 67.8058426,105.58562 C67.8058426,107.485661 68.3770811,108.790436 69.5195583,109.499945 C70.6620354,110.209454 72.3488694,110.564209 74.5800601,110.564209 C75.8166236,110.564209 77.0800689,110.311672 78.370396,109.806597 C79.6607232,109.301523 80.8300822,108.592014 81.878473,107.67807 Z M81.878473,113.955422 C80.9107276,114.676956 80.0437891,115.326338 79.2776573,115.903565 C78.5115256,116.480793 77.4832961,117.058021 76.192969,117.635249 C74.9295237,118.188425 73.6996806,118.60932 72.5034398,118.897934 C71.307199,119.186548 69.633806,119.330855 67.4832608,119.330855 C63.4778703,119.330855 60.1512456,118.128297 57.5033868,115.723182 C54.8555279,113.318066 53.5315985,110.28762 53.5315985,106.631845 C53.5315985,103.62545 54.2036439,101.196284 55.5477347,99.3443446 C56.8918255,97.4924056 58.8273162,96.0252851 61.3542068,94.9429831 C63.9079793,93.8366299 66.9590654,93.0669929 70.507465,92.6340721 C74.0558647,92.2011513 77.8730825,91.8644351 81.9591184,91.6239236 L81.9591184,91.4074632 C81.9591184,89.1707057 81.0384162,87.6254189 79.1970119,86.7716029 C77.3556075,85.9177869 74.593501,85.4908789 70.9106922,85.4908789 C69.2440197,85.4908789 67.2950881,85.7614544 65.0638974,86.3026054 C62.8327067,86.8437564 60.6552796,87.5352271 58.5316162,88.3770176 L57.3219345,88.3770176 L57.3219345,78.6002227 C58.7197889,78.2394554 60.9778614,77.8125474 64.096152,77.3194987 C67.2144426,76.82645 70.359615,76.5799257 73.5316693,76.5799257 C81.3273958,76.5799257 87.0061793,77.7403939 90.5680198,80.0613304 C94.1298604,82.382267 95.9107807,85.9237997 95.9107807,90.6859285 L95.9107807,118.248553 L81.878473,118.248553 L81.878473,113.955422 Z" id="形状"></path>
                            <path d="M134.572491,88.9561061 L133.428653,88.9561061 C132.902751,88.7837016 132.140192,88.6543982 131.140978,88.568196 C130.141764,88.4819937 129.037369,88.4388926 127.827793,88.4388926 C126.381562,88.4388926 124.863019,88.6359263 123.272164,89.0299938 C121.68131,89.4240612 120.136472,89.8920163 118.63765,90.433859 L118.63765,118.215613 L104.832714,118.215613 L104.832714,76.7277009 L118.63765,76.7277009 L118.63765,82.6756563 C119.268733,82.1338136 120.143045,81.4503529 121.260588,80.6252742 C122.37813,79.8001955 123.397066,79.141364 124.317395,78.6487797 C125.31661,78.0823078 126.480169,77.5958808 127.808072,77.1894987 C129.135975,76.7831167 130.391567,76.5799257 131.574847,76.5799257 C132.021864,76.5799257 132.521472,76.5922403 133.073669,76.6168695 C133.625867,76.6414987 134.125474,76.6784425 134.572491,76.7277009 L134.572491,88.9561061 Z" id="路径"></path>
                            <path d="M180.669145,118.212568 L166.724404,118.212568 L166.724404,113.991937 C165.821316,114.665314 164.792061,115.38679 163.63664,116.156363 C162.481218,116.925937 161.465245,117.503117 160.588718,117.887904 C159.473139,118.368888 158.37084,118.729626 157.281822,118.970117 C156.192804,119.210609 154.891295,119.330855 153.377295,119.330855 C148.277504,119.330855 144.240169,117.418945 141.265291,113.595126 C138.290413,109.771306 136.802974,104.660856 136.802974,98.2637742 C136.802974,94.7285449 137.307641,91.6622746 138.316974,89.0649632 C139.326308,86.4676519 140.720782,84.2070291 142.500397,82.2830948 C144.120643,80.5275047 146.086187,79.1386646 148.39703,78.1165745 C150.707873,77.0944844 153.151523,76.5834393 155.72798,76.5834393 C158.065384,76.5834393 159.984446,76.8058942 161.485166,77.250804 C162.985885,77.6957139 164.732298,78.3871278 166.724404,79.3250457 L166.724404,62.0817844 L180.669145,62.0817844 L180.669145,118.212568 Z M166.724404,107.0297 L166.724404,87.1530535 C166.033807,86.8404142 165.130719,86.5818855 164.01514,86.3774675 C162.899561,86.1730495 161.94335,86.0708404 161.146508,86.0708404 C157.79977,86.0708404 155.283076,87.1290043 153.596426,89.2453321 C151.909777,91.3616598 151.066452,94.3197088 151.066452,98.1194791 C151.066452,102.111643 151.737128,104.997544 153.078479,106.777184 C154.41983,108.556823 156.591226,109.446642 159.592665,109.446642 C160.81449,109.446642 162.049596,109.2302 163.297982,108.797315 C164.546368,108.364429 165.688509,107.775225 166.724404,107.0297 Z" id="形状"></path>
                        </g>
                    </g>
                </g>
            </g>
        </g>
    </g>
</svg>