<?xml version="1.0" encoding="UTF-8"?>
<svg width="60px" height="60px" viewBox="0 0 60 60" version="1.1" xmlns="http://www.w3.org/2000/svg" xmlns:xlink="http://www.w3.org/1999/xlink">
    <title>编组 3</title>
    <defs>
        <rect id="path-1" x="0" y="0" width="60" height="60" rx="10"></rect>
    </defs>
    <g id="页面-1" stroke="none" stroke-width="1" fill="none" fill-rule="evenodd">
        <g id="Send-切链2" transform="translate(-28.000000, -620.000000)">
            <g id="编组-3" transform="translate(28.000000, 620.000000)">
                <g id="位图备份-8">
                    <mask id="mask-2" fill="white">
                        <use xlink:href="#path-1"></use>
                    </mask>
                    <use id="蒙版" fill="#25AEB2" xlink:href="#path-1"></use>
                </g>
                <path d="M30,31.8289705 C27.0902099,28.3698857 24.909909,26.4126383 23.4590972,25.9572285 C21.2828795,25.2741137 18.9318995,26.6245631 18.9318995,29.6165644 C18.9318995,32.6085657 21.384385,33.9392208 23.6667036,33.5076196 C25.1882493,33.2198854 26.5391775,32.2146616 27.7194883,30.491948 L29.571321,32.5181759 C27.7763007,34.6874403 25.8080949,35.9881499 23.6667036,36.4203048 C20.4546166,37.0685372 16,34.4073655 16,30.182297 C16,25.9572285 18.8633732,23.0050928 22.5662276,23.0050928 C26.269082,23.0050928 30.0589797,27.5849381 32.2645272,30.182297 C34.4700747,32.7796559 37.1999093,34.8540548 40.0211125,32.5181759 C42.8423156,30.182297 40.631632,26.6354985 39.2121774,25.9572285 C37.7927229,25.2789585 35.8868936,25.6227998 34.4814957,26.963006 C33.5445638,27.8564768 32.8615532,28.5723977 32.432464,29.1107688 L30.6215849,26.963006 C31.7985532,25.4094131 33.3306486,24.2601296 35.2178711,23.5151555 C38.0487049,22.3976943 40.9910235,23.1143081 42.6127456,25.508186 C44.2344677,27.9020639 44.7474015,31.0980999 42.4220343,33.9715424 C40.0966671,36.8449849 35.3806503,36.6740332 33.1658444,34.7616578 C31.689307,33.4867409 30.6340256,32.5091784 30,31.8289705 Z" id="路径-2备份-2" fill="#FFFFFF"></path>
            </g>
        </g>
    </g>
</svg>