<?xml version="1.0" encoding="UTF-8"?>
<svg width="80px" height="80px" viewBox="0 0 80 80" version="1.1" xmlns="http://www.w3.org/2000/svg" xmlns:xlink="http://www.w3.org/1999/xlink">
    <title>load</title>
    <defs>
        <linearGradient x1="50%" y1="1.16513162e-13%" x2="50%" y2="50%" id="linearGradient-1">
            <stop stop-color="#5BBAFF" offset="0%"></stop>
            <stop stop-color="#513DFF" offset="100%"></stop>
        </linearGradient>
    </defs>
    <g id="页面-1" stroke="none" stroke-width="1" fill="none" fill-rule="evenodd">
        <g id="load" transform="translate(-140.000000, -320.000000)" fill-rule="nonzero">
            <g transform="translate(140.000000, 320.000000)">
                <circle id="2" fill="#3A3A49" cx="40" cy="40" r="40"></circle>
                <path d="M40,8.33333333 C42.3011865,8.33333333 44.1666667,10.1988135 44.1666667,12.5 C44.1666667,14.8011865 42.3011865,16.6666667 40,16.6666667 C27.1133558,16.6666667 16.6666667,27.1133558 16.6666667,40 C16.6666667,52.8866442 27.1133558,63.3333333 40,63.3333333 C52.8866442,63.3333333 63.3333333,52.8866442 63.3333333,40 C63.3333333,37.6988135 65.1988135,35.8333333 67.5,35.8333333 C69.8011865,35.8333333 71.6666667,37.6988135 71.6666667,40 C71.6666667,57.4890171 57.4890171,71.6666667 40,71.6666667 C22.5109829,71.6666667 8.33333333,57.4890171 8.33333333,40 C8.33333333,22.5109829 22.5109829,8.33333333 40,8.33333333 Z" id="1" fill="url(#linearGradient-1)"></path>
            </g>
        </g>
    </g>
</svg>