<?xml version="1.0" encoding="UTF-8"?>
<svg width="296px" height="30px" viewBox="0 0 296 30" version="1.1" xmlns="http://www.w3.org/2000/svg" xmlns:xlink="http://www.w3.org/1999/xlink">
    <title>编组备份</title>
    <defs>
        <polygon id="path-1" points="0 0 33.721519 0 33.721519 30 0 30"></polygon>
        <polygon id="path-3" points="0 30 296 30 296 0 0 0"></polygon>
    </defs>
    <g id="页面-1" stroke="none" stroke-width="1" fill="none" fill-rule="evenodd">
        <g id="domain-style" transform="translate(-32.000000, -362.000000)">
            <g id="编组备份" transform="translate(32.000000, 362.000000)">
                <g id="编组">
                    <mask id="mask-2" fill="white">
                        <use xlink:href="#path-1"></use>
                    </mask>
                    <g id="Clip-2"></g>
                    <path d="M22.436888,20.7582924 C22.436888,19.5035779 21.3013335,18.4870849 19.9002329,18.4870849 L11.241898,18.4870849 L11.241898,23.0294999 L19.9002329,23.0294999 C21.2991845,23.0294999 22.436888,22.0123953 22.436888,20.7582924 L22.436888,20.7582924 Z M11.2403631,11.5199486 L18.8380489,11.5199486 C20.2391494,11.5199486 21.375011,10.5034556 21.375011,9.24874111 C21.375011,7.99463823 20.2391494,6.97753359 18.8380489,6.97753359 L11.2403631,6.97753359 L11.2403631,11.5199486 Z M33.721519,21.111802 C33.721519,26.0205704 29.2766165,30 23.7947031,30 L-6.13979214e-05,30 L-6.13979214e-05,0 L23.0124935,0 C28.0618586,0 32.1570999,3.66506289 32.1570999,8.18729486 C32.1570999,10.4071273 31.1639886,12.4122852 29.5618098,13.8874845 C32.0766687,15.499684 33.721519,18.1317404 33.721519,21.111802 L33.721519,21.111802 Z" id="Fill-1" fill="#FFFFFF" mask="url(#mask-2)"></path>
                </g>
                <polygon id="Fill-3" fill="#FFFFFF" points="35.5949367 10.0008154 35.5949367 0 69.3164557 0 69.3164557 10.0008154 58.075847 10.0008154 58.075847 30 46.8355454 30 46.8355454 10.0008154"></polygon>
                <path d="M104.909857,23.1018172 C101.650555,27.2481413 95.9761692,30 89.5079099,30 C79.3910858,30 71.1898734,23.2850516 71.1898734,15 C71.1898734,6.71494844 79.3910858,0 89.5079099,0 C95.9783181,0 101.65209,2.75216255 104.911392,6.89848672 L94.6327851,12.3043575 C93.5472718,10.9232624 91.6623591,10.0034439 89.5079099,10.0034439 C86.1374772,10.0034439 83.4055816,12.2405445 83.4055816,15 C83.4055816,17.7597593 86.1374772,19.9965561 89.5079099,19.9965561 C91.6623591,19.9965561 93.5472718,19.0761299 94.6327851,17.6956425 L104.909857,23.1018172 Z" id="Fill-5" fill="#FFFFFF"></path>
                <path d="M129.266232,15.0018347 C129.266232,12.2430383 127.248393,10.0059119 124.758405,10.0059119 L118.026749,10.0040771 L118.026749,19.9977576 L124.758405,19.9977576 C127.248393,19.9977576 129.266232,17.7606311 129.266232,15.0018347 M140.506329,15.0030579 C140.506329,23.2849513 134.448514,30 126.973945,30 L106.78481,30 L106.78481,0 L126.973945,0 L126.973945,0.00580992376 C134.446672,0.00580992376 140.506329,6.721776 140.506329,15.0030579" id="Fill-7" fill="#FFFFFF"></path>
                <path d="M164.856666,15 C164.856666,12.2411523 162.341697,10.0034439 159.240353,10.0034439 C156.138701,10.0034439 153.623732,12.2411523 153.623732,15 C153.623732,17.7588477 156.138701,19.9959484 159.240353,19.9959484 C162.341697,19.9959484 164.856666,17.7588477 164.856666,15 M176.101266,15 C176.101266,23.2844438 168.552368,30 159.240353,30 C149.928337,30 142.379747,23.2844438 142.379747,15 C142.379747,6.71555619 149.928337,0 159.240353,0 C168.552368,0 176.102801,6.71555619 176.101266,15" id="Fill-9" fill="#FFFFFF"></path>
                <polygon id="Fill-11" fill="#FFFFFF" points="211.696203 0 211.696203 30 200.454878 30 200.454878 19.9989807 194.835443 23.1335875 189.217543 19.9989807 189.216008 30 177.974684 30 177.976525 0.00183471277 194.822857 9.39648143"></polygon>
                <polygon id="Fill-13" fill="#FFFFFF" points="232.302877 19.9522071 228.824691 26.1278612 235.782597 26.1278612 235.782597 30 228.824691 26.1278612 226.684977 29.9286157 215.443038 29.9286157 232.302877 0 249.164557 29.9286157 237.92446 29.9286157"></polygon>
                <mask id="mask-4" fill="white">
                    <use xlink:href="#path-3"></use>
                </mask>
                <g id="Clip-16"></g>
                <polygon id="Fill-15" fill="#FFFFFF" mask="url(#mask-4)" points="251.037975 30 262.278481 30 262.278481 0 251.037975 0"></polygon>
                <polygon id="Fill-17" fill="#FFFFFF" mask="url(#mask-4)" points="274.154318 30 264.151899 30 264.151899 0 285.997278 12.3463938 285.997278 0 296 0 296 30 274.154318 17.6536062"></polygon>
            </g>
        </g>
    </g>
</svg>