<?xml version="1.0" encoding="UTF-8"?>
<svg width="20px" height="20px" viewBox="0 0 20 20" version="1.1" xmlns="http://www.w3.org/2000/svg" xmlns:xlink="http://www.w3.org/1999/xlink">
    <title>load</title>
    <g id="页面-1" stroke="none" stroke-width="1" fill="none" fill-rule="evenodd">
        <g id="wallet" transform="translate(-316.000000, -372.000000)" fill="#9C9CA4">
            <g id="load" transform="translate(316.000000, 372.000000)">
                <path d="M10,0 C15.5228564,0 20,4.47714358 20,10 C20,15.5228564 15.5228564,20 10,20 C4.47714358,20 0,15.5228564 0,10 C0,4.47714358 4.47714361,0 10,0 Z M13.017838,1.99172131 L12.240752,3.07921008 C11.5253023,2.8477522 10.7711335,2.72727273 10,2.72727273 C5.98338364,2.72727273 2.72727273,5.98338364 2.72727273,10 C2.72727273,14.0166164 5.98338364,17.2727273 10,17.2727273 C13.3043459,17.2727273 16.1682357,15.0503632 17.020163,11.9060492 C17.1514628,11.4214445 16.8650527,10.9221552 16.380448,10.7908553 C15.8958433,10.6595555 15.396554,10.9459657 15.2652542,11.4305703 C14.6267202,13.7872869 12.4781772,15.4545455 10,15.4545455 C6.98753773,15.4545455 4.54545455,13.0124623 4.54545455,10 C4.54545455,6.98753773 6.98753773,4.54545455 10,4.54545455 C10.3779067,4.54545455 10.7498686,4.58382523 11.111636,4.65863372 L10.0840283,6.09855408 C9.88935174,6.37113858 10.0523412,6.76415806 10.3737662,6.79707695 L15.0014137,7.27058714 C15.307849,7.30210096 15.5378178,6.97993739 15.4256796,6.67644125 L13.7320315,2.09609829 C13.6143907,1.77794922 13.2125146,1.7191368 13.017838,1.99172131 Z" id="形状结合"></path>
            </g>
        </g>
    </g>
</svg>