<?xml version="1.0" encoding="UTF-8"?>
<svg width="60px" height="60px" viewBox="0 0 60 60" version="1.1" xmlns="http://www.w3.org/2000/svg" xmlns:xlink="http://www.w3.org/1999/xlink">
    <title>编组</title>
    <g id="页面-1" stroke="none" stroke-width="1" fill="none" fill-rule="evenodd">
        <g id="wallet" transform="translate(-24.000000, -528.000000)">
            <g id="编组" transform="translate(24.000000, 528.000000)">
                <rect id="矩形备份-3" fill="#F3962B" x="0" y="0" width="60" height="60" rx="10"></rect>
                <path d="M39.0853291,27.1827851 C39.4834004,24.5212209 37.4570689,23.09053 34.6862111,22.1361169 L35.5850975,18.5307953 L33.3904264,17.9839361 L32.515393,21.4943345 C31.9384242,21.3504344 31.3459119,21.2148438 30.7570166,21.0804263 L31.6384044,17.5468592 L29.4451019,17 L28.5457266,20.6041485 C28.0682757,20.4954414 27.5993297,20.3880052 27.1443632,20.2748012 L27.1469049,20.2634613 L24.1204094,19.5076928 L23.5365976,21.8517384 C23.5365976,21.8517384 25.1648578,22.2249791 25.1305447,22.2479523 C26.0192643,22.4697656 26.1799787,23.0580743 26.1532908,23.5243808 L25.1293716,27.6316906 C25.1905682,27.6472342 25.2699479,27.6697186 25.3575392,27.7049115 C25.2843183,27.6867285 25.206405,27.6668836 25.125559,27.6475275 L23.6903712,33.4012805 C23.5817619,33.6712886 23.3060838,34.0764963 22.6847328,33.9226249 C22.7067284,33.9544941 21.0896127,33.5245536 21.0896127,33.5245536 L20,36.0367433 L22.8560052,36.7487161 C23.3873209,36.8819605 23.9079809,37.0213636 24.4207226,37.1524573 L23.5125491,40.7991307 L25.7046785,41.3459899 L26.6040537,37.7380288 C27.2029203,37.9006007 27.7840927,38.0505617 28.3530453,38.1919201 L27.4567005,41.7828712 L29.6514694,42.3297305 L30.5595451,38.6899002 C34.3019237,39.3981582 37.1158928,39.1126066 38.3003309,35.7276319 C39.254744,33.0023294 38.2528204,31.4303779 36.2839707,30.4052857 C37.7179854,30.0745698 38.7981156,29.1313988 39.0861111,27.1830784 L39.0854268,27.1825896 L39.0853291,27.1827851 Z M34.0710189,34.2141398 C33.3927726,36.9394423 28.8041993,35.4662265 27.3165153,35.0967984 L28.5216781,30.2655892 C30.0092643,30.6369725 34.7798634,31.3719185 34.0711166,34.2141398 L34.0710189,34.2141398 Z M34.7497539,27.1432908 C34.1310424,29.6222427 30.3119236,28.3628241 29.0730343,28.054006 L30.1656774,23.6723867 C31.4045668,23.9812048 35.3942736,24.557587 34.7499494,27.1432908 L34.7497539,27.1432908 Z" id="形状" fill="#0B0B0F" fill-rule="nonzero"></path>
            </g>
        </g>
    </g>
</svg>